<?xml version="1.0" encoding="UTF-8"?>
<svg width="500px" height="207px" viewBox="0 0 500 207" version="1.1" xmlns="http://www.w3.org/2000/svg" xmlns:xlink="http://www.w3.org/1999/xlink">
    <title>Group 12</title>
    <defs>
        <polygon id="path-1" points="0.000346927374 0.562253631 498.37505 0.562253631 498.37505 205.843575 0.000346927374 205.843575"></polygon>
    </defs>
    <g id="404" stroke="none" stroke-width="1" fill="none" fill-rule="evenodd">
        <g transform="translate(-470.000000, -356.000000)" id="Group-12">
            <g transform="translate(470.500000, 356.000000)">
                <polygon id="Fill-1" fill="#FABDA6" points="120.99786 142.618374 377.379503 142.618374 377.379503 13.9904246 120.99786 13.9904246"></polygon>
                <g id="Group-11" transform="translate(0.000000, 0.594402)">
                    <g id="Group-4">
                        <mask id="mask-2" fill="white">
                            <use xlink:href="#path-1"></use>
                        </mask>
                        <g id="Clip-3"></g>
                        <path d="M434.330291,202.317868 C433.005028,197.832097 428.50885,182.031868 426.715235,168.323611 L468.626375,168.323611 C466.83276,182.029555 462.337738,197.832097 461.010163,202.317868 L434.330291,202.317868 Z M217.233548,202.317868 C225.39328,196.098617 230.26414,186.439002 230.26414,175.893566 L230.26414,173.906829 L268.11276,173.906829 L268.11276,175.893566 C268.11276,186.439002 272.982464,196.098617 281.142196,202.317868 L217.233548,202.317868 Z M71.3852799,202.317868 L74.7481626,202.317868 L74.7481626,163.746483 L71.3852799,163.746483 L71.3852799,202.317868 Z M56.5599168,202.317868 L67.8593413,202.317868 L67.8593413,168.595371 L56.5599168,168.595371 L56.5599168,202.317868 Z M42.7799615,202.317868 L53.0328218,202.317868 L53.0328218,189.644611 L42.7799615,189.644611 L42.7799615,202.317868 Z M29.0000061,202.317868 L39.2528665,202.317868 L39.2528665,199.782985 L29.0000061,199.782985 L29.0000061,202.317868 Z M29.0000061,134.211399 L39.2528665,134.211399 L39.2528665,123.852147 L29.0000061,123.852147 L29.0000061,134.211399 Z M42.7799615,160.220544 L53.0328218,160.220544 L53.0328218,130.570974 L42.7799615,130.570974 L42.7799615,160.220544 Z M42.7799615,186.119829 L53.0328218,186.119829 L53.0328218,163.746483 L42.7799615,163.746483 L42.7799615,186.119829 Z M29.0000061,196.257047 L39.2528665,196.257047 L39.2528665,154.489304 L29.0000061,154.489304 L29.0000061,196.257047 Z M29.0000061,150.963365 L39.2528665,150.963365 L39.2528665,137.738494 L29.0000061,137.738494 L29.0000061,150.963365 Z M56.5599168,165.069432 L67.8593413,165.069432 L67.8593413,154.513589 L56.5599168,154.513589 L56.5599168,165.069432 Z M71.3852799,153.719125 L74.7481626,153.719125 L74.7481626,149.863606 L71.3852799,149.863606 L71.3852799,153.719125 Z M81.917995,150.293796 L95.2099391,201.035393 L91.9569168,201.887678 L78.6638162,151.14608 L81.917995,150.293796 Z M78.2752575,163.577645 L88.4240397,202.317868 L78.2752575,202.317868 L78.2752575,163.577645 Z M71.3852799,160.219388 L74.7481626,160.219388 L74.7481626,157.243907 L71.3852799,157.243907 L71.3852799,160.219388 Z M111.692459,161.255544 L111.692459,155.14384 L386.685598,155.14384 L386.685598,161.255544 C386.685598,166.287147 382.591855,170.380891 377.560252,170.380891 L120.816649,170.380891 C115.785045,170.380891 111.692459,166.287147 111.692459,161.255544 L111.692459,161.255544 Z M120.816649,4.0893486 L377.560252,4.0893486 C382.591855,4.0893486 386.685598,8.18309162 386.685598,13.2135385 L386.685598,151.617902 L111.692459,151.617902 L111.692459,13.2135385 C111.692459,8.18309162 115.785045,4.0893486 120.816649,4.0893486 L120.816649,4.0893486 Z M369.195833,190.267924 L369.195833,193.226058 C369.195833,194.198611 369.984515,194.988449 370.958224,194.988449 C371.931934,194.988449 372.721772,194.198611 372.721772,193.226058 L372.721772,190.267924 C379.907794,190.980282 385.634408,195.991069 386.545671,202.317868 L355.37309,202.317868 C356.284353,195.991069 362.008654,190.980282 369.195833,190.267924 L369.195833,190.267924 Z M469.345671,160.09912 C469.295945,161.630226 469.181459,163.242282 469.019559,164.901751 L426.322051,164.901751 C426.161308,163.242282 426.045665,161.630226 425.995939,160.09912 L469.345671,160.09912 Z M433.121827,136.557784 L442.920213,156.573181 L436.268459,156.573181 L433.121827,136.557784 Z M451.029062,143.794689 L451.673191,156.573181 L447.883587,156.573181 L451.029062,143.794689 Z M460.582285,156.573181 L455.801626,156.573181 L462.528548,134.544449 L460.582285,156.573181 Z M496.61185,202.317868 L464.691062,202.317868 C466.784191,195.158444 472.901677,172.993254 472.901677,158.336728 C472.901677,157.363019 472.112995,156.573181 471.139285,156.573181 L464.018023,156.573181 L467.375123,118.544159 C467.452604,117.672215 466.858202,116.882377 465.997822,116.715851 C465.140911,116.545857 464.290939,117.05584 464.035369,117.894248 L454.691459,148.494399 L453.861146,131.995689 C453.818358,131.149187 453.160353,130.459958 452.316163,130.379008 C451.460408,130.286494 450.693699,130.849673 450.491325,131.673047 L445.152112,153.353695 L431.206788,124.864019 C430.83442,124.105404 429.965945,123.731879 429.155291,123.985136 C428.349263,124.23955 427.849688,125.046734 427.98152,125.881673 L432.806123,156.573181 L424.202325,156.573181 C423.228615,156.573181 422.439934,157.363019 422.439934,158.336728 C422.439934,172.993254 428.55742,195.158444 430.651704,202.317868 L390.113241,202.317868 C389.133749,193.530198 380.917353,186.648315 370.958224,186.648315 C361.000252,186.648315 352.783855,193.530198 351.80552,202.317868 L287.743068,202.317868 C277.803598,197.187969 271.637542,187.106259 271.637542,175.893566 L271.637542,173.906829 L377.560252,173.906829 C384.535805,173.906829 390.211537,168.231097 390.211537,161.255544 L390.211537,13.2135385 C390.211537,6.23798547 384.535805,0.562253631 377.560252,0.562253631 L120.816649,0.562253631 C113.839939,0.562253631 108.165364,6.23798547 108.165364,13.2135385 L108.165364,161.255544 C108.165364,168.231097 113.839939,173.906829 120.816649,173.906829 L226.737045,173.906829 L226.737045,175.893566 C226.737045,187.106259 220.572146,197.187969 210.632677,202.317868 L99.1186542,202.317868 C99.120967,202.161751 99.1094028,202.004477 99.0689279,201.847203 L84.8819112,147.694153 C84.7639559,147.241991 84.470224,146.854589 84.0666318,146.618678 C83.6630397,146.382768 83.181967,146.318008 82.729805,146.435963 L78.2012464,147.622455 C77.9919335,146.882343 77.3188944,146.337667 76.5117101,146.337667 L69.6217324,146.337667 C68.6480229,146.337667 67.8593413,147.126349 67.8593413,148.100058 L67.8593413,150.98765 L56.5599168,150.98765 L56.5599168,128.807427 C56.5599168,127.833717 55.7700788,127.043879 54.7975257,127.043879 L42.7799615,127.043879 L42.7799615,122.089756 C42.7799615,121.116047 41.9901235,120.326209 41.0175704,120.326209 L27.2376151,120.326209 C26.2627492,120.326209 25.4729112,121.116047 25.4729112,122.089756 L25.4729112,202.317868 L1.76273799,202.317868 C0.790184916,202.317868 0.000346927374,203.107706 0.000346927374,204.080259 C0.000346927374,205.053969 0.790184916,205.843807 1.76273799,205.843807 L496.61185,205.843807 C497.585559,205.843807 498.375397,205.053969 498.375397,204.080259 C498.375397,203.107706 497.585559,202.317868 496.61185,202.317868 L496.61185,202.317868 Z" id="Fill-2" fill="#BBBDBF" mask="url(#mask-2)"></path>
                    </g>
                    <path d="M197.982664,85.7516581 L207.401742,85.7516581 L207.401742,61.8448927 L197.982664,85.7516581 Z M220.69253,37.7785408 L220.69253,85.7516581 L225.041842,85.7516581 L225.041842,98.4838927 L220.69253,98.4838927 L220.69253,117.680541 L207.401742,117.680541 L207.401742,98.4838927 L184.492971,98.4838927 L184.492971,87.6678536 L204.567345,37.7785408 L220.69253,37.7785408 Z" id="Fill-5" fill="#FFFFFF"></path>
                    <path d="M253.180428,53.7827631 C253.180428,50.7760592 251.875981,49.2727073 249.268244,49.2727073 L249.18845,49.2727073 C246.607311,49.2727073 245.316741,50.7760592 245.316741,53.7827631 L245.316741,101.676087 C245.316741,104.683947 246.621188,106.186143 249.228925,106.186143 C251.862104,106.186143 253.180428,104.683947 253.180428,101.676087 L253.180428,53.7827631 Z M266.470059,101.676087 C266.470059,113.170947 260.722629,118.918378 249.228925,118.918378 C237.760663,118.918378 232.027109,113.170947 232.027109,101.676087 L232.027109,53.7827631 C232.027109,42.2624615 237.760663,36.5011542 249.228925,36.5011542 C260.722629,36.5011542 266.470059,42.2624615 266.470059,53.7827631 L266.470059,101.676087 Z" id="Fill-7" fill="#FFFFFF"></path>
                    <path d="M286.825213,85.7516581 L296.244292,85.7516581 L296.244292,61.8448927 L286.825213,85.7516581 Z M309.535079,37.7785408 L309.535079,85.7516581 L313.884392,85.7516581 L313.884392,98.4838927 L309.535079,98.4838927 L309.535079,117.680541 L296.244292,117.680541 L296.244292,98.4838927 L273.335521,98.4838927 L273.335521,87.6678536 L293.409895,37.7785408 L309.535079,37.7785408 Z" id="Fill-9" fill="#FFFFFF"></path>
                </g>
            </g>
        </g>
    </g>
</svg>