<svg xmlns="http://www.w3.org/2000/svg" xmlns:xlink="http://www.w3.org/1999/xlink" width="382" height="224" viewBox="0 0 382 224">
    <defs>
        <path id="m8ml11gtsa" d="M0 0.087L151.267 0.087 151.267 104.37 0 104.37z"/>
        <path id="56q9ur8wjc" d="M0 160.773L151.267 160.773 151.267 0.503 0 0.503z"/>
    </defs>
    <g fill="none" fill-rule="evenodd">
        <path fill="#F8F8F8" d="M368.021 90.76c-25.018-37.128-67.104-44.014-107.418-52.898-28.61-6.305-48.11-22.674-75.142-32.459-16.95-6.136-36.2-7.856-52.817-.867-5.629 2.366-10.896 5.915-15.893 10.07-10.008 8.322-18.934 19.078-27.516 27.635-15.905 15.862-30.977 32.57-46.957 48.31-15.314 15.141-30.07 31.758-38.046 52.07-19.504 49.34 32.736 60.186 68.474 62.137 55.595 3.035 113.085 6.17 168.833 4.986 30.085-.64 67.738-6.094 95.685-17.683 41.866-17.37 56.702-62.851 30.797-101.3" transform="translate(.572)"/>
        <g>
            <path fill="#FFF" d="M79.139 22.19L71.622 22.19 14.824 22.19 29.599 37.566 29.599 57.751 72.352 57.751 79.766 57.751 121.659 57.751 121.659 37.961 136.876 22.19z" transform="translate(.572) translate(115.622 61)"/>
            <path fill="#FFF" d="M7.049 22.19L7.049 57.751 13.364 57.751 28.293 38.06 14.095 22.19zM28.92 57.751L28.92 40.003 15.868 57.751zM144.675 22.19L144.675 57.751 138.361 57.751 123.431 38.06 137.631 22.19zM122.805 57.751L122.805 40.003 135.856 57.751z" transform="translate(.572) translate(115.622 61)"/>
            <path fill="#BBBDBF" d="M7.805 56.526H143.46V23.482H7.805v33.044zM3.96 60.37h143.346V19.636H3.96V60.37z" transform="translate(.572) translate(115.622 61)"/>
            <g transform="translate(.572) translate(115.622 61) translate(0 .036)">
                <path fill="#FABDA6" d="M133.134 153.723H18.133c-6.097 0-11.083-4.988-11.083-11.083v-79.1h137.167v79.1c0 6.095-4.988 11.083-11.083 11.083"/>
                <g transform="translate(0 56.403)">
                    <mask id="8ktgmrsxeb" fill="#fff">
                        <use xlink:href="#m8ml11gtsa"/>
                    </mask>
                    <path fill="#BBBDBF" d="M3.846 3.932v83.04c0 7.472 6.08 13.554 13.553 13.554h116.469c7.473 0 13.553-6.082 13.553-13.555V3.932H3.846zm130.022 100.44H17.399C7.806 104.371 0 96.564 0 86.971V.086h151.267V86.97c0 9.594-7.805 17.4-17.399 17.4z" mask="url(#8ktgmrsxeb)"/>
                </g>
                <path fill="#BBBDBF" d="M17.526 56.49H133.74L119.73 37.515l13.346-14.07H18.19l13.344 14.07L17.526 56.49zm123.833 3.845H9.908l16.618-22.511L9.244 19.599h132.778L124.74 37.824l16.62 22.51z"/>
                <mask id="y9fz553tad" fill="#fff">
                    <use xlink:href="#56q9ur8wjc"/>
                </mask>
                <path fill="#BBBDBF" d="M27.676 57.715L31.521 57.715 31.521 37.53 27.676 37.53zM119.736 57.715L123.582 57.715 123.582 37.53 119.736 37.53z" mask="url(#y9fz553tad)"/>
                <path fill="#FFF" d="M105.576 85.041c-1.061 0-1.923.86-1.923 1.923v8.518c0 16.136-13.127 29.265-29.265 29.265-16.137 0-29.266-13.129-29.266-29.265v-8.518c0-1.063-.862-1.923-1.923-1.923-1.062 0-1.923.86-1.923 1.923v8.518c0 18.258 14.854 33.11 33.112 33.11 18.258 0 33.111-14.852 33.111-33.11v-8.518c0-1.063-.861-1.923-1.923-1.923" mask="url(#y9fz553tad)"/>
                <path fill="#FFF" d="M101.386 87.125v-.278c0-2.337 1.901-4.238 4.238-4.238 2.336 0 4.237 1.901 4.237 4.238v.278h3.845v-.278c0-4.457-3.626-8.083-8.082-8.083-4.457 0-8.083 3.626-8.083 8.083v.278h3.845zM39.16 87.125v-.278c0-2.337 1.901-4.238 4.238-4.238 2.336 0 4.237 1.901 4.237 4.238v.278h3.845v-.278c0-4.457-3.626-8.083-8.082-8.083-4.457 0-8.083 3.626-8.083 8.083v.278h3.845z" mask="url(#y9fz553tad)"/>
                <path fill="#BBBDBF" d="M96.627 15.558l1.362-2.105c.576-.887.32-2.084-.567-2.658-.888-.576-2.085-.32-2.66.568l-2.718 4.195h4.583zM86.111 15.558L89.114 7.4c.365-.992-.148-2.103-1.141-2.469-.992-.365-2.103.149-2.47 1.141l-3.488 9.487h4.096zM77.556 15.558V2.425c0-1.057-.866-1.922-1.922-1.922-1.058 0-1.923.865-1.923 1.922v13.133h3.845zM65.155 15.558h4.098l-3.49-9.487c-.366-.992-1.478-1.506-2.468-1.14-.994.365-1.507 1.476-1.143 2.468l3.003 8.16zM54.64 15.558h4.582l-2.718-4.195c-.575-.889-1.773-1.144-2.66-.568-.887.574-1.143 1.771-.568 2.658l1.364 2.105z" mask="url(#y9fz553tad)"/>
            </g>
        </g>
    </g>
</svg>
