<svg version="1.2" baseProfile="tiny-ps" xmlns="http://www.w3.org/2000/svg" viewBox="0 0 300 60" width="300" height="60">
	<title>IHG_Secondary_Horizontal_Logo_Black_RGB_4-svg</title>
	<defs>
		<clipPath clipPathUnits="userSpaceOnUse" id="cp1">
			<path d="M66.98 10.33L101.47 10.33L101.47 49.72L66.98 49.72L66.98 10.33Z" />
		</clipPath>
		<clipPath clipPathUnits="userSpaceOnUse" id="cp2">
			<path d="M229.15 10.79L242.62 10.79L242.62 25.35L229.15 25.35L229.15 10.79Z" />
		</clipPath>
	</defs>
	<style>
		tspan { white-space:pre }
		.shp0 { fill: #000000 } 
	</style>
	<g id="Header-Phase-1">
		<g id="Header_Large_1008px_alt">
			<g id="Primary">
				<g id="IHG-Logo-Secondary-Horizontal">
					<g id="Group-38">
						<path id="Fill-1" class="shp0" d="M54.85 10.97L49.1 10.97L49.1 27.73L28.31 27.73L28.31 10.97L22.61 10.97L22.61 49.08L28.31 49.08L28.31 31.67L49.1 31.67L49.1 49.08L54.85 49.08L54.85 10.97Z" />
						<path id="Fill-2" class="shp0" d="M0 49.08L5.7 49.08L5.7 10.97L0 10.97L0 49.08Z" />
						<g id="Group-37">
							<g id="Group-5">
								<g id="Clip-4">
								</g>
								<g id="Clip-Path: Clip-Path: Fill-3" clip-path="url(#cp1)">
									<g id="Clip-Path: Fill-3">
										<path id="Fill-3" fill-rule="evenodd" class="shp0" d="M95.71 30.74L95.71 45.51C94.1 46.61 91.4 47.47 88.34 47.47C79.42 47.47 73.32 39.58 73.32 29.62C73.32 20.24 78.67 12.52 87.6 12.52C93.76 12.52 97.27 15.4 99.86 18.62L100.15 18.62L100.15 12C98.31 11.54 93.18 10.33 87.83 10.33C74.87 10.33 66.98 19.78 66.98 30.14C66.98 41.48 75.51 49.72 87.94 49.72C94.1 49.72 98.88 47.36 101.47 46.61L101.47 30.74L95.71 30.74Z" />
									</g>
								</g>
							</g>
							<path id="Fill-6" fill-rule="evenodd" class="shp0" d="M105.19 11.36C106.49 11.36 107.48 12.37 107.48 13.64C107.48 14.93 106.47 15.92 105.19 15.92C103.93 15.92 102.91 14.94 102.91 13.65C102.91 12.38 103.92 11.36 105.19 11.36ZM105.19 11.73C104.1 11.73 103.32 12.53 103.32 13.65C103.32 14.78 104.14 15.55 105.19 15.55C106.26 15.55 107.07 14.76 107.07 13.64C107.07 12.52 106.29 11.73 105.19 11.73ZM104.41 12.49L105.21 12.49C105.73 12.49 106.07 12.7 106.07 13.17L106.07 13.18C106.07 13.52 105.87 13.7 105.61 13.79L106.2 14.74L105.69 14.74L105.14 13.87L104.91 13.87L104.91 14.74L104.41 14.74L104.41 12.49ZM105.19 13.53C105.45 13.53 105.59 13.41 105.59 13.2L105.59 13.19C105.59 12.95 105.44 12.87 105.19 12.87L104.91 12.87L104.91 13.53L105.19 13.53Z" />
							<path id="Fill-8" class="shp0" d="M122.02 11L123.87 11L123.87 17.42L134.76 17.42L134.76 11L136.61 11L136.61 25.21L134.76 25.21L134.76 18.91L123.87 18.91L123.87 25.21L122.02 25.21L122.02 11Z" />
							<path id="Fill-10" fill-rule="evenodd" class="shp0" d="M140.55 18.2L140.55 18.04C140.55 14 144.22 10.82 149.89 10.82C155.55 10.82 159.23 14 159.23 18L159.23 18.16C159.23 22.17 155.55 25.39 149.95 25.39C144.22 25.39 140.55 22.17 140.55 18.2ZM157.3 18.14L157.3 17.98C157.3 14.82 154.58 12.23 149.89 12.23C145.16 12.23 142.47 14.66 142.47 18.02L142.47 18.18C142.47 21.59 145.53 23.94 149.95 23.94C154.48 23.94 157.3 21.55 157.3 18.14Z" />
							<path id="Fill-12" class="shp0" d="M166.62 12.43L160.78 12.43L160.78 11L174.31 11L174.31 12.43L168.47 12.43L168.47 25.21L166.62 25.21L166.62 12.43Z" />
							<path id="Fill-14" class="shp0" d="M177.81 11L189.77 11L189.77 12.43L179.66 12.43L179.66 17.22L188.18 17.22L188.18 18.65L179.66 18.65L179.66 23.78L190.25 23.78L190.25 25.21L177.81 25.21L177.81 11Z" />
							<path id="Fill-16" class="shp0" d="M193.91 11L195.75 11L195.75 23.78L204.92 23.78L204.92 25.21L193.91 25.21L193.91 11Z" />
							<path id="Fill-18" fill-rule="evenodd" class="shp0" d="M207.16 20.88L208.97 20.88C209.27 22.63 210.6 23.98 214.4 23.98C217.44 23.98 219.15 22.95 219.15 21.22C219.15 19.55 217.89 19.01 214 18.55C210.08 18.1 207.9 17.16 207.9 14.62C207.9 12.43 210.18 10.82 213.92 10.82C217.61 10.82 219.98 12.13 220.36 14.74L218.67 14.74C218.23 12.89 216.68 12.23 213.92 12.23C210.92 12.23 209.63 13.15 209.63 14.58C209.63 15.85 210.56 16.59 214.53 17.04C218.71 17.52 220.93 18.36 220.93 21.16C220.93 23.62 218.51 25.39 214.4 25.39C209.63 25.39 207.52 23.38 207.16 20.88Z" />
							<path id="Fill-20" fill-rule="evenodd" class="shp0" d="M122.02 34.84L128.78 34.84C131.94 34.84 134.6 36.01 134.6 39.01L134.6 39.09C134.6 41.55 132.52 42.79 130.53 43.14L135.74 49.05L133.51 49.05L128.42 43.28L123.87 43.28L123.87 49.05L122.02 49.05L122.02 34.84ZM128.9 41.89C131.27 41.89 132.76 40.92 132.76 39.11L132.76 39.03C132.76 37 131.15 36.25 128.9 36.25L123.87 36.25L123.87 41.89L128.9 41.89Z" />
							<path id="Fill-22" class="shp0" d="M139.79 34.84L151.75 34.84L151.75 36.27L141.64 36.27L141.64 41.06L150.16 41.06L150.16 42.49L141.64 42.49L141.64 47.62L152.23 47.62L152.23 49.05L139.79 49.05L139.79 34.84Z" />
							<path id="Fill-24" fill-rule="evenodd" class="shp0" d="M155.37 44.71L157.18 44.71C157.48 46.46 158.81 47.81 162.61 47.81C165.65 47.81 167.36 46.78 167.36 45.05C167.36 43.38 166.1 42.85 162.21 42.39C158.29 41.93 156.11 41 156.11 38.45C156.11 36.27 158.39 34.66 162.13 34.66C165.82 34.66 168.19 35.97 168.57 38.57L166.88 38.57C166.44 36.72 164.89 36.07 162.13 36.07C159.13 36.07 157.84 36.98 157.84 38.41C157.84 39.69 158.77 40.42 162.74 40.88C166.92 41.36 169.14 42.19 169.14 44.99C169.14 47.46 166.72 49.23 162.61 49.23C157.84 49.23 155.73 47.22 155.37 44.71Z" />
							<path id="Fill-26" fill-rule="evenodd" class="shp0" d="M172.72 42.03L172.72 41.87C172.72 37.84 176.4 34.66 182.06 34.66C187.73 34.66 191.4 37.84 191.4 41.83L191.4 41.99C191.4 46.01 187.73 49.23 182.12 49.23C176.4 49.23 172.72 46.01 172.72 42.03ZM189.47 41.97L189.47 41.81C189.47 38.65 186.75 36.07 182.06 36.07C177.33 36.07 174.65 38.49 174.65 41.85L174.65 42.01C174.65 45.43 177.71 47.77 182.12 47.77C186.65 47.77 189.47 45.39 189.47 41.97Z" />
							<path id="Fill-28" fill-rule="evenodd" class="shp0" d="M196.01 34.84L202.77 34.84C205.93 34.84 208.59 36.01 208.59 39.01L208.59 39.09C208.59 41.55 206.51 42.79 204.52 43.14L209.72 49.05L207.5 49.05L202.41 43.28L197.86 43.28L197.86 49.05L196.01 49.05L196.01 34.84ZM202.89 41.89C205.25 41.89 206.74 40.92 206.74 39.11L206.74 39.03C206.74 37 205.13 36.25 202.89 36.25L197.86 36.25L197.86 41.89L202.89 41.89Z" />
							<path id="Fill-30" class="shp0" d="M217.83 36.27L211.99 36.27L211.99 34.84L225.52 34.84L225.52 36.27L219.68 36.27L219.68 49.05L217.83 49.05L217.83 36.27Z" />
							<path id="Fill-32" fill-rule="evenodd" class="shp0" d="M228.11 44.71L229.92 44.71C230.21 46.46 231.55 47.81 235.34 47.81C238.38 47.81 240.09 46.78 240.09 45.05C240.09 43.38 238.84 42.85 234.94 42.39C231.03 41.93 228.84 41 228.84 38.45C228.84 36.27 231.13 34.66 234.86 34.66C238.56 34.66 240.93 35.97 241.3 38.57L239.61 38.57C239.18 36.72 237.63 36.07 234.86 36.07C231.86 36.07 230.57 36.98 230.57 38.41C230.57 39.69 231.51 40.42 235.48 40.88C239.65 41.36 241.88 42.19 241.88 44.99C241.88 47.46 239.46 49.23 235.34 49.23C230.57 49.23 228.47 47.22 228.11 44.71Z" />
							<g id="Group-36">
								<g id="Clip-35">
								</g>
								<g id="Clip-Path: Clip-Path: Fill-34" clip-path="url(#cp2)">
									<g id="Clip-Path: Fill-34">
										<path id="Fill-34" fill-rule="evenodd" class="shp0" d="M238.63 23.26C237.58 24.44 236.06 25.35 233.99 25.35C231.07 25.35 229.15 23.94 229.15 21.55C229.15 19.28 230.9 18.05 232.71 17.37C231.77 16.54 231.14 15.54 231.14 14.21C231.14 12.02 232.93 10.79 234.94 10.79C237.1 10.79 238.54 12.18 238.54 14.09C238.54 15.5 237.43 16.88 235.26 17.73L238.71 21.23L240.95 17.87L242.48 17.87L239.63 22.17L242.62 25.21L240.52 25.21L238.63 23.26ZM237.79 22.41L233.69 18.21C232.01 18.83 230.78 19.76 230.78 21.45C230.78 23 231.92 23.98 234.02 23.98C235.69 23.98 236.94 23.32 237.79 22.41ZM237.06 14.05C237.06 12.96 236.28 12.1 234.91 12.1C233.64 12.1 232.64 12.82 232.64 14.23C232.64 15.31 233.36 16.14 234.32 16.92C236.32 16.06 237.06 15.19 237.06 14.05Z" />
									</g>
								</g>
							</g>
						</g>
					</g>
				</g>
			</g>
		</g>
	</g>
</svg>